<?xml version="1.0" encoding="UTF-8" standalone="no"?>
<svg width="200" height="200" viewBox="0 0 200 200" xmlns="http://www.w3.org/2000/svg">
    <!-- Background Circle -->
    <circle cx="100" cy="100" r="90" fill="#f8f9fa" stroke="#0066cc" stroke-width="4"/>
    
    <!-- Ascending Graph Line -->
    <path d="M40,140 Q70,120 100,100 T160,60" fill="none" stroke="#00cc66" stroke-width="4"/>
    
    <!-- Circuit Board Pattern -->
    <path d="M60,80 L80,80 M90,80 L110,80 M120,80 L140,80" stroke="#0066cc" stroke-width="2"/>
    <path d="M60,100 L80,100 M90,100 L110,100 M120,100 L140,100" stroke="#0066cc" stroke-width="2"/>
    <path d="M80,70 L80,90 M110,70 L110,90 M140,70 L140,90" stroke="#0066cc" stroke-width="2"/>
    
    <!-- Binary Dots -->
    <circle cx="70" cy="120" r="3" fill="#0066cc"/>
    <circle cx="90" cy="110" r="3" fill="#0066cc"/>
    <circle cx="110" cy="90" r="3" fill="#0066cc"/>
    <circle cx="130" cy="70" r="3" fill="#0066cc"/>
    
    <!-- ME Letters (Stylized) -->
    <path d="M70,160 L75,150 L80,160 L85,150 L90,160" fill="none" stroke="#0066cc" stroke-width="3"/>
    <path d="M100,150 L100,160 L110,155 L110,150 L110,160" fill="none" stroke="#0066cc" stroke-width="3"/>
</svg>
